<svg width="38" height="38" viewBox="0 0 38 38" fill="none" xmlns="http://www.w3.org/2000/svg">
<path d="M19.0141 0C8.5063 0 0 8.45234 0 18.8935C0 29.3346 8.5063 37.7869 19.0141 37.7869C29.5219 37.7869 38.0281 29.3346 38.0281 18.8935C38.0281 8.45234 29.5219 0 19.0141 0ZM18.335 26.3159L16.9411 30.4C16.9054 30.5421 16.8339 30.6486 16.7624 30.7551C16.5837 31.0393 16.3693 31.2523 16.0833 31.3944C15.8331 31.5364 15.5472 31.6075 15.2613 31.6075C15.0826 31.6075 14.8681 31.572 14.6894 31.5009C13.9031 31.2168 13.4028 30.4355 13.51 29.6542C9.57852 27.6654 6.89796 23.5813 6.89796 18.8935C6.89796 12.2168 12.3306 6.78318 19.0856 6.78318C19.8719 6.78318 20.6224 6.85421 21.373 6.99626C21.8019 6.3215 22.6596 6.00187 23.4459 6.25047C23.8748 6.39252 24.1965 6.67664 24.4109 7.03178C24.5896 7.3514 24.6969 7.70654 24.6611 8.0972C24.6611 8.23925 24.6254 8.38131 24.5896 8.48785L23.1957 12.572L18.335 26.3159ZM19.8719 30.9682L21.5517 25.9252C24.4467 24.8953 26.5196 22.1607 26.5196 18.8935C26.5196 17.3664 26.055 15.9103 25.233 14.7383L26.9128 9.69533C29.5219 11.8972 31.2017 15.2 31.2017 18.8935C31.1659 25.286 26.198 30.5065 19.8719 30.9682Z" fill="white"/>
<path d="M11.5085 18.8935C11.5085 21.5215 12.9024 23.8299 14.9754 25.1794L19.6931 11.471C19.4787 11.4355 19.2285 11.4355 19.0141 11.4355C14.8681 11.4355 11.5085 14.7738 11.5085 18.8935Z" fill="white"/>
</svg>
